<svg width="1314" height="1574" fill="none" xmlns="http://www.w3.org/2000/svg"><path d="M167.855 864.52c-3.682-5.749-28.147-28.335-41.064-11.786-4.462 6.598-5.782 17.503-24.696 24.124-18.913 6.621-33.69 26.51-8.709 49.761 3.452-2.21 7.262.16 8.829 2.474 1.567 2.313 6.641.312 5.854-4.997-.788-5.308-.414-15.78 5.909-23.218 6.323-7.438 12.726-1.474 17.76-.801 5.035.672 29.508 1.93 34.94-17.847 11.493 7.294 14.627 11.153 21.18 23.283 1.949 3.643 5.361 5.117 7.103 3.363a4.93 4.93 0 012.405-1.484 4.908 4.908 0 012.82.083c.342-5.789-5.09-46.67-32.331-42.955z" fill="#353535"/><path d="M161.34 858.731c2.609-.136 7.556-7.149 1.638-12.73m.575 16.413c3.078-.384 9.114-2.146 8.065-8.006" stroke="#353535" stroke-width="2.5" stroke-miterlimit="10" stroke-linecap="round"/><path d="M104.091 929.357c-2.258-2.53-15.024-8.007-15.477 8.599a17.841 17.841 0 004.183 12.218c7.747 8.967 20.035 4.964 20.544 2.954a29.94 29.94 0 009.155 12.039 29.663 29.663 0 0013.839 5.984" stroke="#353535" stroke-width="2.5" stroke-linecap="round" stroke-linejoin="round"/><path d="M92.797 950.173c7.755 8.928 19.255 4.884 20.544 2.955a29.922 29.922 0 009.155 12.039 29.647 29.647 0 0013.838 5.983m10.055 1.498s3.889 1.393 13.99-.537m10.332-2.562c3.34-1.793 23.717-15.212 24.035-39.496 5.011-.168 10.451-3.531 10.085-12.682-.365-9.152-6.529-11.049-11.341-8.735m-70.008 82.427c8.288-3.019 8.153-17.895 7.159-21.394m39.377 3.467c0 2.522-.629 9.344 2.298 13.475m-8.78-61.29c1.463 2.242 10.101 18.231-5.225 8.695m-6.618 18.375c1.806-1.12 9.751-3.619 9.751-3.619m8.431-1.361c1.742.352 5.289 1.033 6.546 1.361" stroke="#353535" stroke-width="2.5" stroke-linecap="round" stroke-linejoin="round"/><path d="M143.183 924.932c2.488-1.157 4.064-3.055 3.521-4.239-.544-1.185-3.002-1.206-5.49-.049-2.488 1.158-4.064 3.056-3.521 4.24.544 1.184 3.001 1.206 5.49.048zm35.661-3.367c.448-1.043-.92-2.643-3.057-3.574-2.136-.93-4.232-.839-4.68.204-.449 1.043.92 2.643 3.057 3.573 2.136.931 4.232.84 4.68-.203z" fill="#353535"/><path d="M128.827 982.616c-2.497-.632-30.359 2.522-4.024 8.807 17.688 4.276 27.097 9.467 29.253 11.637 5.225-7.081 19.51-16.2 22.269-17.61 2.76-1.409 4.12-5.732-4.772-4.091" stroke="#353535" stroke-width="2.5" stroke-linecap="round" stroke-linejoin="round"/><path d="M113.022 981.031c-2.712.6-3.976.712-10.132 14.171-2.506 5.998-5.854 5.788 5.066 13.048m12.177 6.62c5.432 3.05 12.646 10.11 14.316 12.42m18.915-21.35c-2.386.21-6.689 3.89-6.792 13.88-.104 9.99-4.812 11.38-4.812 11.38m14.635-26.11c2.298-1.36 7.102-1.68 7.205 4.11.104 5.79.629 14.09 5.337 15.56m18.84-18.82c-1.71 1.89-9.13 11.67-10.8 14.19m-5.797-41.99c3.571-.92 8.478-.6 10.395.969 2.386 1.922 4.08 6.942 5.122 14.732a12.863 12.863 0 004.08 7.579m-94.05 2.84c-11.43 5.6-66.253 55.01-88.825 176.2-1.392 9.18-.278 12.41 7.73 14.3m10.452 1.89c9.059.56 24.656-1.89 24.656-1.89m5.018-2.73c2.513-3.21 6.275-13.33 7.245-20.9.97-7.58 6.69-33.52 11.43-42.92" stroke="#353535" stroke-width="2.5" stroke-linecap="round" stroke-linejoin="round"/><path d="M20.93 1201.15c0 6.59-3.834 34.79-5.019 38.56-1.129 3.61-11.286 25.46-12.4 28.69-1.113 3.23-3.483 12.9 1.743 2.94a67.23 67.23 0 014.772-8.48 59.64 59.64 0 00-3.484 20.69c.143 11.64 2.927 2.73 3.699-2.25.771-4.98 3.483-17.18 3.483-17.18s-1.256 13.61-.215 19.43c1.042 5.82 3.627 5.96 3.556-1.75-.072-7.71.071-16.42.35-17.12.278-.71.628 8.8 1.59 12.34.963 3.54 3.627 2.67 2.299-10.52-.485-3.58.159-2.82.159-2.82s1.964 7.79 4.056 6.53c1.591-.8-.103-4.13-1.845-7.77-1.742-3.65-1.813-14.1-.692-19.92 1.122-5.83 7.46-40.78 10.276-45.9m16.512 1.44c-.979 9.96-6.093 32.13-9.895 44.89-3.762 12.62-6.577 36.39 10.873 32.82m144.068-269.83c6.825 5.6 32.18 38.25 47.928 66.02m6.412 7.01c6.268-3.2 12.4-9.25 15.327-13.04 2.927-3.79 7.524-4.91 10.864-.7 3.341 4.2 13.235 24.69 14.07 42.64 0 4.63 0 4.63-3.34 8.81-3.341 4.18-14.317 15.28-16.79 18.64m-31.695 15.33c5.71 2.8 9.194 6.45 18.388-1.4m-29.468-1.62c-2.091 11.79-1.885 67.53-2.091 76.8-.207 9.26-5.639 33.03-23.614 32.39-17.975-.63-127.209 14.1-135.711 16.18" stroke="#353535" stroke-width="2.5" stroke-linecap="round" stroke-linejoin="round"/><path d="M67.88 1272.48c3.229 5.4 8.669 67.52 5.273 91.98-.094.7-.325 1.38-.68 1.99a5.433 5.433 0 01-1.388 1.58c-7.516 5.7-8.129 17.83.692 22.63a6.954 6.954 0 012.573 2.38 7.032 7.032 0 011.085 3.35c1.042 18.79 4.772 69.53 1.289 96.36-.334 2.59-.62 5.18-.86 7.77-2.282 25.07-5.543 27.88-11.182 33.18-5.997 5.6-15.326 17.25-19.931 26.79-4.605 9.53 4.04 9.54 12.542 12.34 8.503 2.8 22.994-29.17 25.078-33.8 2.084-4.63 4.04-8.01 4.04-15.15 0-7.14 2.267-33.19 3.42-40.89 1.877-12.62 17.132-74.46 8.566-91.72-8.566-17.26 5.226-33.04 7.954-53.65 2.728-20.6 3.762-34.5 4.183-42.08.422-7.57 7.317-16.81 16.305-17.04 8.987-.22 16.44.49 24.377-3.15 3.762-2.11 7.676 1.26 7.039 9.95-.636 8.7-2.72 31.84 4.112 52.46 6.832 20.62 5.011 34.08 3.762 38.43-1.248 4.35-6.689 13.61-1.256 34.86 5.432 21.25 6.267 87.52 5.853 95.52-.413 8-4.39 19.14 16.09 33.23 20.481 14.1 25.293 21.68 31.767 10.32s3.976-16.02-7.31-20.2c-11.286-4.19-25.085-12.01-27.837-21.04-2.752-9.02-2.72-42.49 1.249-118.49l.111-2.03c.029-.53.196-1.05.485-1.5a3.06 3.06 0 011.162-1.05c4.772-2.46 18.03-11.21 3.006-26.84a5.442 5.442 0 01-1.543-4c.883-24.02 4.772-85.83 6.363-98.04-21.451 2.99-99.085 11.15-126.39 15.55z" fill="#353535"/><path d="M156.393 1011.39s8.391 211.37-10.586 250.48m4.145-112.62s-3.181 97.96-14.698 113.91m14.697-154.24c.485 6.2.692 16.41.485 20.51" stroke="#353535" stroke-width="2.5" stroke-linecap="round" stroke-linejoin="round"/><ellipse cx="1083.87" cy="292.365" rx="192.93" ry="267.483" transform="rotate(-8.237 1083.87 292.365)" fill="#E9A14C"/><path d="M277.549 1068.71c7.898-5.34 29.428-26.27 34.757-34.68 2.823-3.27 5.639-14.53 5.567-20.73-.071-6.21 3.977-8.01 5.122 2.31m-1.112 15.12c2.441-.36 5.368-2.46 3.762-9.26-.629-2.46 1.113-3.86 2.791-1.82-.7-3.16 1.042-5.12 2.641-2.67-.692-3.3.795-4.7 2.513-3.02-.215-3.2 1.392-3.64 4.526.07 3.133 3.72 4.597 13.68-7.524 19.01-12.121 5.33-42.814 44.4-46.926 49.23" stroke="#353535" stroke-width="2.5" stroke-linecap="round" stroke-linejoin="round"/><path d="M935.93 101.014L360.846 964.113l22.898 18.208 790.866-443.858-238.68-437.449z" fill="#E9A14C"/><path d="M385.757 980.014l-20.05-20.185a4.246 4.246 0 00-3.007-1.255 4.23 4.23 0 00-3.006 1.255l-13.625 13.723a4.246 4.246 0 00-1.177 2.282l-5.265 18.535a15.79 15.79 0 01-3.022 5.781c-5.854 7.13-16.615 19.3-20.274 23.05-1.368 1.68 1.591 6.35 4.772 7.82 3.762-1.1 4.613-2.35 4.613-2.35l1.201-2.84-.883-4.94v-1.11l1.146-.52 1.145.84.795-.42-.31-1.95.732-1.26 1.042.58.731.31.16-1.2.047-1.11.732-1.31 1.312.84.573-.27-.056-1.47.318-1 1.933 1 1.042 1.05 1.042 1.37 5.496-5.93a15.819 15.819 0 018.391-4.74l17.37-3.59a4.24 4.24 0 002.45-1.202l13.624-13.723a4.28 4.28 0 00.935-4.671 4.267 4.267 0 00-.927-1.39z" fill="#353535"/></svg>