<svg width="27" height="28" fill="none" xmlns="http://www.w3.org/2000/svg"><path d="M13.5 7.2a6.465 6.465 0 00-3.6 1.096 6.497 6.497 0 00-2.387 2.917 6.52 6.52 0 001.405 7.085 6.46 6.46 0 007.062 1.41 6.484 6.484 0 002.908-2.395 6.516 6.516 0 00-.806-8.209A6.47 6.47 0 0013.5 7.2zm0 10.835a4.31 4.31 0 01-2.4-.73 4.347 4.347 0 01-.655-6.668 4.316 4.316 0 014.708-.94 4.326 4.326 0 012.667 4.004 4.355 4.355 0 01-1.27 3.06 4.326 4.326 0 01-3.05 1.274zM19.44.157H7.56a7.55 7.55 0 00-5.346 2.222A7.597 7.597 0 000 7.742V19.66c0 2.012.796 3.941 2.214 5.364a7.548 7.548 0 005.346 2.221h11.88a7.55 7.55 0 005.346-2.221A7.597 7.597 0 0027 19.66V7.742a7.6 7.6 0 00-2.214-5.363A7.547 7.547 0 0019.44.157zm5.4 19.503a5.432 5.432 0 01-1.582 3.831 5.4 5.4 0 01-3.818 1.587H7.56a5.384 5.384 0 01-3.818-1.587 5.42 5.42 0 01-1.582-3.83V7.74c0-1.436.569-2.814 1.582-3.83A5.391 5.391 0 017.56 2.324h11.88a5.385 5.385 0 013.818 1.587 5.418 5.418 0 011.582 3.83v11.92zm-2.7-13.002a1.63 1.63 0 01-1 1.502 1.615 1.615 0 01-1.765-.352 1.627 1.627 0 011.145-2.775c.43 0 .842.171 1.146.476.303.305.474.718.474 1.15z" fill="#454545"/></svg>