<svg width="386" height="728" fill="none" xmlns="http://www.w3.org/2000/svg"><g clip-path="url(#clip0_537_95)"><path d="M166.849 19.52c-3.682-5.749-28.147-28.335-41.064-11.786-4.462 6.598-5.782 17.503-24.695 24.124-18.914 6.621-33.692 26.51-8.71 49.76 3.452-2.21 7.262.16 8.829 2.475 1.567 2.313 6.641.312 5.854-4.996-.788-5.309-.414-15.781 5.909-23.22 6.323-7.438 12.726-1.473 17.76-.8 5.035.672 29.508 1.93 34.94-17.847 11.493 7.294 14.627 11.154 21.18 23.283 1.949 3.643 5.361 5.116 7.103 3.363a4.931 4.931 0 012.405-1.484 4.907 4.907 0 012.82.083c.342-5.789-5.09-46.67-32.331-42.955z" fill="#353535"/><path d="M160.334 13.731c2.609-.136 7.556-7.15 1.638-12.73m.575 16.413c3.078-.384 9.115-2.146 8.065-8.006" stroke="#353535" stroke-width="2.5" stroke-miterlimit="10" stroke-linecap="round"/><path d="M103.086 84.357c-2.259-2.53-15.025-8.007-15.478 8.599a17.843 17.843 0 004.184 12.218c7.746 8.967 20.035 4.964 20.544 2.954a29.922 29.922 0 009.155 12.039 29.655 29.655 0 0013.838 5.984" stroke="#353535" stroke-width="2.5" stroke-linecap="round" stroke-linejoin="round"/><path d="M91.791 105.173c7.755 8.928 19.255 4.884 20.544 2.955a29.922 29.922 0 009.155 12.039 29.647 29.647 0 0013.839 5.983m10.054 1.498s3.889 1.393 13.99-.537m10.332-2.562c3.341-1.793 23.717-15.212 24.036-39.496 5.01-.168 10.45-3.53 10.085-12.682-.366-9.152-6.53-11.05-11.342-8.735m-70.007 82.427c8.287-3.019 8.152-17.895 7.158-21.394m39.377 3.467c0 2.522-.629 9.344 2.298 13.475m-8.78-61.29c1.464 2.242 10.101 18.231-5.225 8.695m-6.617 18.375c1.805-1.12 9.751-3.619 9.751-3.619m8.43-1.361c1.742.352 5.289 1.033 6.546 1.361" stroke="#353535" stroke-width="2.5" stroke-linecap="round" stroke-linejoin="round"/><path d="M142.177 79.932c2.488-1.157 4.064-3.055 3.521-4.24-.544-1.183-3.001-1.205-5.49-.048-2.488 1.157-4.064 3.056-3.521 4.24.544 1.184 3.002 1.206 5.49.048zm35.661-3.367c.449-1.043-.92-2.643-3.057-3.574-2.136-.93-4.232-.84-4.68.204-.448 1.043.92 2.643 3.057 3.573 2.136.931 4.232.84 4.68-.203z" fill="#353535"/><path d="M127.821 137.616c-2.497-.632-30.358 2.522-4.024 8.807 17.688 4.276 27.097 9.464 29.253 11.642 5.225-7.086 19.51-16.205 22.27-17.615 2.759-1.409 4.119-5.732-4.773-4.091" stroke="#353535" stroke-width="2.5" stroke-linecap="round" stroke-linejoin="round"/><path d="M112.017 136.031c-2.713.6-3.977.712-10.133 14.171-2.505 5.997-5.854 5.789 5.066 13.051m12.177 6.621c5.432 3.051 12.646 10.104 14.316 12.418m18.915-21.353c-2.386.208-6.689 3.891-6.792 13.883-.104 9.992-4.812 11.377-4.812 11.377m14.635-26.109c2.298-1.361 7.102-1.681 7.206 4.107.103 5.789.628 14.092 5.336 15.565m18.841-18.823c-1.71 1.889-9.131 11.673-10.801 14.195m-5.797-41.994c3.571-.92 8.478-.6 10.395.969 2.386 1.922 4.08 6.942 5.122 14.732a12.835 12.835 0 004.08 7.574m-94.05 2.842c-11.43 5.605-66.253 55.013-88.825 176.2-1.392 9.183-.278 12.41 7.73 14.299m10.452 1.898c9.06.56 24.656-1.898 24.656-1.898m5.018-2.73c2.513-3.203 6.275-13.323 7.246-20.897.97-7.574 6.688-33.523 11.429-42.923" stroke="#353535" stroke-width="2.5" stroke-linecap="round" stroke-linejoin="round"/><path d="M19.924 356.146c0 6.589-3.833 34.796-5.018 38.567-1.13 3.603-11.286 25.461-12.4 28.687-1.113 3.227-3.484 12.899 1.742 2.939a66.934 66.934 0 014.772-8.479 59.645 59.645 0 00-3.484 20.689c.144 11.641 2.927 2.73 3.699-2.25.771-4.98 3.483-17.182 3.483-17.182s-1.256 13.611-.214 19.432c1.042 5.821 3.626 5.957 3.555-1.754-.072-7.71.071-16.413.35-17.118.278-.704.628 8.808 1.59 12.347.963 3.538 3.627 2.666 2.3-10.521-.486-3.579.158-2.818.158-2.818s1.965 7.79 4.056 6.525c1.591-.801-.103-4.131-1.845-7.774s-1.813-14.1-.692-19.921c1.122-5.82 7.46-40.777 10.276-45.893m16.511 1.433c-.978 9.96-6.092 32.138-9.894 44.893-3.762 12.618-6.577 36.389 10.873 32.826m144.069-269.835c6.824 5.605 32.179 38.255 47.927 66.022m6.412 7.013c6.268-3.202 12.4-9.255 15.327-13.042 2.927-3.787 7.524-4.908 10.864-.705 3.341 4.204 13.235 24.692 14.07 42.643 0 4.628 0 4.628-3.34 8.807-3.341 4.179-14.317 15.284-16.79 18.647" stroke="#353535" stroke-width="2.5" stroke-linecap="round" stroke-linejoin="round"/><path d="M276.543 223.71c7.898-5.34 29.428-26.269 34.757-34.684 2.823-3.267 5.639-14.524 5.567-20.729-.071-6.205 3.977-8.007 5.122 2.314m-1.112 15.116c2.442-.352 5.368-2.458 3.762-9.256-.629-2.458 1.113-3.859 2.792-1.825-.7-3.155 1.041-5.116 2.64-2.666-.692-3.299.795-4.7 2.513-3.019-.214-3.202 1.392-3.643 4.526.072s4.597 13.675-7.524 19.008c-12.121 5.332-42.814 44.396-46.926 49.232m-46.074 68.376c5.711 2.802 9.194 6.453 18.388-1.401m-29.468-1.618c-2.091 11.785-1.885 67.535-2.091 76.798-.207 9.264-5.639 33.027-23.614 32.395-17.975-.633-127.209 14.099-135.711 16.173m91.297-261.605s8.391 211.372-10.586 250.484m4.145-112.627s-3.181 97.959-14.698 113.916m14.697-154.246c.485 6.206.692 16.414.485 20.513" stroke="#353535" stroke-width="2.5" stroke-linecap="round" stroke-linejoin="round"/><path d="M384.751 135.014l-20.05-20.185a4.242 4.242 0 00-3.007-1.255 4.23 4.23 0 00-3.006 1.255l-13.625 13.723a4.252 4.252 0 00-1.177 2.282l-5.265 18.535a15.79 15.79 0 01-3.022 5.781c-5.854 7.134-16.615 19.296-20.274 23.051-1.368 1.681 1.591 6.349 4.772 7.822 3.762-1.105 4.613-2.354 4.613-2.354l1.201-2.834-.883-4.948v-1.105l1.146-.52 1.145.84.795-.424-.31-1.946.732-1.265 1.042.585.732.312.159-1.209.047-1.105.732-1.313 1.312.841.573-.264-.056-1.474.319-1 1.932 1 1.042 1.049 1.042 1.369 5.496-5.925a15.791 15.791 0 018.391-4.739l17.37-3.595a4.262 4.262 0 002.45-1.201l13.625-13.723a4.277 4.277 0 001.258-3.029 4.277 4.277 0 00-1.251-3.032zM66.874 427.483c3.229 5.397 8.669 67.519 5.273 91.979a5.377 5.377 0 01-2.068 3.563c-7.516 5.701-8.129 17.839.692 22.635a6.934 6.934 0 012.573 2.385 6.996 6.996 0 011.086 3.347c1.041 18.791 4.772 69.529 1.288 96.359-.334 2.588-.62 5.177-.859 7.766-2.283 25.076-5.544 27.887-11.183 33.179-5.997 5.604-15.326 17.254-19.931 26.79-4.605 9.535 4.04 9.543 12.543 12.346 8.502 2.802 22.993-29.176 25.077-33.804 2.084-4.628 4.04-8.006 4.04-15.148 0-7.142 2.267-33.187 3.42-40.889 1.877-12.619 17.132-74.461 8.566-91.723s5.226-33.035 7.954-53.644c2.728-20.608 3.762-34.508 4.183-42.082.422-7.574 7.318-16.814 16.305-17.038 8.988-.224 16.44.489 24.378-3.154 3.762-2.106 7.675 1.257 7.038 9.952-.636 8.695-2.72 31.842 4.112 52.459 6.832 20.616 5.011 34.083 3.762 38.431-1.248 4.347-6.688 13.611-1.256 34.86 5.432 21.249 6.267 87.519 5.854 95.518-.414 7.998-4.391 19.143 16.09 33.235 20.48 14.091 25.292 21.673 31.766 10.312 6.474-11.361 3.977-16.013-7.309-20.2-11.286-4.188-25.086-12.01-27.838-21.033-2.752-9.024-2.72-42.499 1.249-118.497l.111-2.025a3.05 3.05 0 011.647-2.554c4.772-2.458 18.03-11.21 3.006-26.838a5.436 5.436 0 01-1.543-4.004c.883-24.019 4.772-85.821 6.363-98.039-21.451 2.994-99.085 11.153-126.39 15.556z" fill="#353535"/></g><defs><clipPath id="clip0_537_95"><path fill="#fff" d="M0 0h386v728H0z"/></clipPath></defs></svg>